<svg width="90" height="90" viewBox="0 0 90 90" fill="none" xmlns="http://www.w3.org/2000/svg">
<mask id="mask0_4066_2839" style="mask-type:alpha" maskUnits="userSpaceOnUse" x="0" y="0" width="90" height="90">
<rect width="90" height="90" fill="#D9D9D9"/>
</mask>
<g mask="url(#mask0_4066_2839)">
<path d="M37.5 58.4138V31.5863L58.4138 45L37.5 58.4138ZM45 82.5C37.7213 82.5 31.1406 80.6288 25.2581 76.8863C19.3763 73.1432 14.7069 67.8654 11.25 61.0529V75H7.5V54.8082H27.6206V58.5582H14.25C17.1488 64.7838 21.3278 69.7057 26.7872 73.3238C32.2466 76.9413 38.3175 78.75 45 78.75C52.4281 78.75 59.1 76.5313 65.0156 72.0938C70.9313 67.6563 74.9806 61.8869 77.1638 54.7857L80.8706 55.5357C78.5387 63.6032 74.0675 70.1141 67.4569 75.0685C60.8462 80.0229 53.3606 82.5 45 82.5ZM7.6875 41.25C8.17313 37.3513 9.05281 33.8525 10.3266 30.7538C11.6009 27.655 13.4687 24.5047 15.93 21.3028L18.6778 23.9063C16.6778 26.5169 15.125 29.1432 14.0194 31.785C12.9137 34.4269 12.0603 37.5819 11.4591 41.25H7.6875ZM23.9278 18.7285L21.3244 15.9807C24.3488 13.6157 27.5387 11.7444 30.8944 10.3669C34.25 8.98941 37.7019 8.14441 41.25 7.83191V11.5819C38.2069 11.8944 35.2116 12.6635 32.2641 13.8891C29.3172 15.1154 26.5384 16.7285 23.9278 18.7285ZM65.9494 18.7285C63.6756 16.8247 60.9653 15.2238 57.8184 13.9257C54.6716 12.6275 51.6488 11.8463 48.75 11.5819V7.83191C52.3125 8.15878 55.7753 9.01941 59.1384 10.4138C62.5016 11.8075 65.6638 13.6872 68.625 16.0528L65.9494 18.7285ZM78.4181 41.25C78.0094 37.7738 77.1922 34.6066 75.9666 31.7485C74.7403 28.8904 73.1272 26.3004 71.1272 23.9785L73.8028 21.3028C76.2166 24.1685 78.1203 27.2825 79.5141 30.645C80.9084 34.0082 81.7931 37.5432 82.1681 41.25H78.4181Z" fill="#8497AA"/>
</g>
</svg>
