<svg width="90" height="90" viewBox="0 0 90 90" fill="none" xmlns="http://www.w3.org/2000/svg">
<mask id="mask0_4066_2826" style="mask-type:alpha" maskUnits="userSpaceOnUse" x="0" y="0" width="90" height="90">
<rect width="90" height="90" fill="#D9D9D9"/>
</mask>
<g mask="url(#mask0_4066_2826)">
<path d="M16.9131 84.6331C14.9176 84.6331 13.2516 83.9727 11.915 82.6521C10.5784 81.3314 9.91016 79.6852 9.91016 77.7135V23.0206C9.91016 21.0488 10.5784 19.4026 11.915 18.082C13.2516 16.7613 14.9176 16.101 16.9131 16.101H47.2572V20.3842H16.9131C16.135 20.3842 15.4956 20.6312 14.9949 21.1252C14.495 21.6199 14.245 22.2517 14.245 23.0206V77.7135C14.245 78.4823 14.495 79.1141 14.9949 79.6088C15.4956 80.1028 16.135 80.3498 16.9131 80.3498H72.265C73.0431 80.3498 73.6825 80.1028 74.1832 79.6088C74.6831 79.1141 74.9331 78.4823 74.9331 77.7135V47.7307H79.268V77.7135C79.268 79.6852 78.5997 81.3314 77.2631 82.6521C75.9265 83.9727 74.2605 84.6331 72.265 84.6331H16.9131ZM21.9145 69.1469H67.2636L53.2588 50.6968L40.2542 66.9239L31.5845 56.627L21.9145 69.1469ZM66.2634 37.5172V28.9507H57.5936V24.6675H66.2634V16.101H70.5982V24.6675H79.268V28.9507H70.5982V37.5172H66.2634Z" fill="#8497AA"/>
</g>
</svg>
