<svg width="60" height="60" viewBox="0 0 60 60" fill="none" xmlns="http://www.w3.org/2000/svg">
<mask id="mask0_2488_1467" style="mask-type:alpha" maskUnits="userSpaceOnUse" x="0" y="0" width="60" height="60">
<rect width="60" height="60" fill="#D9D9D9"/>
</mask>
<g mask="url(#mask0_2488_1467)">
<path d="M13.2694 51.25C12.0065 51.25 10.9375 50.8125 10.0625 49.9375C9.18753 49.0625 8.75003 47.9935 8.75003 46.7306V13.2694C8.75003 12.0065 9.18753 10.9375 10.0625 10.0625C10.9375 9.1875 12.0065 8.75 13.2694 8.75H32.0194V12.5H13.2694C13.0448 12.5 12.8604 12.5721 12.7163 12.7163C12.5721 12.8604 12.5 13.0448 12.5 13.2694V46.7306C12.5 46.9552 12.5721 47.1396 12.7163 47.2837C12.8604 47.4279 13.0448 47.5 13.2694 47.5H46.7307C46.9552 47.5 47.1396 47.4279 47.2838 47.2837C47.4279 47.1396 47.5 46.9552 47.5 46.7306V27.9806H51.25V46.7306C51.25 47.9935 50.8125 49.0625 49.9375 49.9375C49.0625 50.8125 47.9936 51.25 46.7307 51.25H13.2694ZM15.9619 41.7306H44.0382L35.3125 30.0963L27.8125 39.8319L22.5 33.0769L15.9619 41.7306ZM42.5 22.5V17.5H37.5V13.75H42.5V8.75H46.25V13.75H51.25V17.5H46.25V22.5H42.5Z" fill="#5A6B7F"/>
</g>
</svg>
