<svg preserveAspectRatio="none" width="100%" height="100%" overflow="visible" style="display: block;" viewBox="0 0 25 30" fill="none" xmlns="http://www.w3.org/2000/svg">
<g id="Apple_logo_black 1" clip-path="url(#clip0_0_4)">
<path id="Vector" d="M24.2016 10.228C24.0235 10.363 20.8789 12.0942 20.8789 15.9436C20.8789 20.396 24.8802 21.9712 25 22.0102C24.9816 22.1062 24.3643 24.1674 22.8903 26.2676C21.576 28.1158 20.2033 29.961 18.1151 29.961C16.0269 29.961 15.4895 28.7759 13.0789 28.7759C10.7296 28.7759 9.89436 30 7.98428 30C6.07419 30 4.74143 28.2898 3.20907 26.1896C1.4341 23.7234 0 19.892 0 16.2556C0 10.423 3.88159 7.32973 7.70176 7.32973C9.73161 7.32973 11.4237 8.63186 12.6981 8.63186C13.9111 8.63186 15.8027 7.25173 18.112 7.25173C18.9872 7.25173 22.1318 7.32973 24.2016 10.228ZM17.0157 4.78248C17.9708 3.67537 18.6464 2.13921 18.6464 0.60306C18.6464 0.390039 18.6279 0.174017 18.588 0C17.0341 0.0570057 15.1855 1.0111 14.0708 2.27423C13.1956 3.24632 12.3787 4.78248 12.3787 6.33963C12.3787 6.57366 12.4186 6.80768 12.437 6.88269C12.5353 6.90069 12.695 6.92169 12.8547 6.92169C14.2489 6.92169 16.0023 6.0096 17.0157 4.78248Z" fill="var(--fill-0, white)"/>
</g>
<defs>
<clipPath id="clip0_0_4">
<rect width="25" height="30" fill="white"/>
</clipPath>
</defs>
</svg>
