<svg width="28" height="28" viewBox="0 0 28 28" fill="none" xmlns="http://www.w3.org/2000/svg">
  <path
    d="M5.30835 22.1667C4.31668 22.1667 3.54863 21.8215 3.00418 21.1313C2.45974 20.441 2.25557 19.6 2.39168 18.6083L3.61668 9.85833C3.79168 8.69167 4.31182 7.72917 5.1771 6.97083C6.04238 6.2125 7.05835 5.83333 8.22502 5.83333H19.775C20.9417 5.83333 21.9577 6.2125 22.8229 6.97083C23.6882 7.72917 24.2083 8.69167 24.3833 9.85833L25.6084 18.6083C25.7445 19.6 25.5403 20.441 24.9959 21.1313C24.4514 21.8215 23.6834 22.1667 22.6917 22.1667C22.2834 22.1667 21.9042 22.0938 21.5542 21.9479C21.2042 21.8021 20.8834 21.5833 20.5917 21.2917L17.9667 18.6667H10.0334L7.40835 21.2917C7.11668 21.5833 6.79585 21.8021 6.44585 21.9479C6.09585 22.0938 5.71668 22.1667 5.30835 22.1667ZM20.6646 14.8313C20.8882 14.6076 21 14.3306 21 14C21 13.6694 20.8882 13.3924 20.6646 13.1688C20.441 12.9451 20.1639 12.8333 19.8334 12.8333C19.5028 12.8333 19.2257 12.9451 19.0021 13.1688C18.7785 13.3924 18.6667 13.6694 18.6667 14C18.6667 14.3306 18.7785 14.6076 19.0021 14.8313C19.2257 15.0549 19.5028 15.1667 19.8334 15.1667C20.1639 15.1667 20.441 15.0549 20.6646 14.8313ZM18.3313 11.3313C18.5549 11.1076 18.6667 10.8306 18.6667 10.5C18.6667 10.1694 18.5549 9.89236 18.3313 9.66875C18.1077 9.44514 17.8306 9.33333 17.5 9.33333C17.1695 9.33333 16.8924 9.44514 16.6688 9.66875C16.4452 9.89236 16.3333 10.1694 16.3333 10.5C16.3333 10.8306 16.4452 11.1076 16.6688 11.3313C16.8924 11.5549 17.1695 11.6667 17.5 11.6667C17.8306 11.6667 18.1077 11.5549 18.3313 11.3313ZM9.04168 15.1667H10.7917V13.125H12.8333V11.375H10.7917V9.33333H9.04168V11.375H7.00002V13.125H9.04168V15.1667Z"
    fill="currentColor"
  />
</svg>
