<svg width="28" height="28" viewBox="0 0 28 28" fill="none" xmlns="http://www.w3.org/2000/svg">
<mask id="mask0_2989_3644" style="mask-type:alpha" maskUnits="userSpaceOnUse" x="0" y="0" width="28" height="28">
<rect width="27.5" height="27.5" fill="#D9D9D9"/>
</mask>
<g mask="url(#mask0_2989_3644)">
<path d="M2.86475 24.1063V4.93564C2.86475 4.3568 3.06527 3.86686 3.46631 3.46582C3.86735 3.06478 4.35729 2.86426 4.93613 2.86426H22.5642C23.143 2.86426 23.633 3.06478 24.034 3.46582C24.4351 3.86686 24.6356 4.3568 24.6356 4.93564V17.9804C24.6356 18.5592 24.4351 19.0492 24.034 19.4502C23.633 19.8512 22.6773 20.0518 22.0984 20.0518L6.91928 20.0518L2.86475 24.1063ZM9.88412 12.1753C10.0816 11.9776 10.1803 11.7385 10.1803 11.458C10.1803 11.1775 10.0816 10.9384 9.88412 10.7407C9.68646 10.5433 9.44737 10.4445 9.16683 10.4445C8.88629 10.4445 8.64719 10.5433 8.44954 10.7407C8.25207 10.9384 8.15334 11.1775 8.15334 11.458C8.15334 11.7385 8.25207 11.9776 8.44954 12.1753C8.64719 12.3728 8.88629 12.4715 9.16683 12.4715C9.44737 12.4715 9.68646 12.3728 9.88412 12.1753ZM14.4675 12.1753C14.6649 11.9776 14.7637 11.7385 14.7637 11.458C14.7637 11.1775 14.6649 10.9384 14.4675 10.7407C14.2698 10.5433 14.0307 10.4445 13.7502 10.4445C13.4696 10.4445 13.2305 10.5433 13.0329 10.7407C12.8354 10.9384 12.7367 11.1775 12.7367 11.458C12.7367 11.7385 12.8354 11.9776 13.0329 12.1753C13.2305 12.3728 13.4696 12.4715 13.7502 12.4715C14.0307 12.4715 14.2698 12.3728 14.4675 12.1753ZM19.0508 12.1753C19.2483 11.9776 19.347 11.7385 19.347 11.458C19.347 11.1775 19.2483 10.9384 19.0508 10.7407C18.8531 10.5433 18.614 10.4445 18.3335 10.4445C18.053 10.4445 17.8139 10.5433 17.6162 10.7407C17.4187 10.9384 17.32 11.1775 17.32 11.458C17.32 11.7385 17.4187 11.9776 17.6162 12.1753C17.8139 12.3728 18.053 12.4715 18.3335 12.4715C18.614 12.4715 18.8531 12.3728 19.0508 12.1753Z" fill="currentColor"/>
</g>
</svg>
