<svg width="32" height="32" viewBox="0 0 32 32" fill="none" xmlns="http://www.w3.org/2000/svg">
<rect width="32" height="32" rx="4" fill="#F4F6F9"/>
<path d="M19.7778 12.2224H23.5556C24.0772 12.2224 24.5 12.6452 24.5 13.1668V23.5557L21.3522 20.9405C21.1826 20.7996 20.9685 20.7224 20.748 20.7224H13.1667C12.6451 20.7224 12.2222 20.2995 12.2222 19.7779V16.9446M19.7778 12.2224V9.38902C19.7778 8.86742 19.3549 8.44458 18.8333 8.44458H8.44444C7.92284 8.44458 7.5 8.86742 7.5 9.38902V19.7782L10.6478 17.1626C10.8174 17.0217 11.0315 16.9446 11.252 16.9446H12.2222M19.7778 12.2224V16.0001C19.7778 16.5217 19.3549 16.9446 18.8333 16.9446H12.2222" stroke="#5A6B7F" stroke-width="1.41667" stroke-linecap="round" stroke-linejoin="round"/>
</svg>
