<svg width="24" height="24" viewBox="0 0 24 24" fill="none" xmlns="http://www.w3.org/2000/svg">
<mask id="mask0_3053_3574" style="mask-type:alpha" maskUnits="userSpaceOnUse" x="0" y="0" width="24" height="24">
<rect width="24" height="24" fill="#D9D9D9"/>
</mask>
<g mask="url(#mask0_3053_3574)">
<path d="M10.9327 10.5577L2.93274 5.44225V15.6923C2.93274 15.7821 2.96157 15.8558 3.01924 15.9135C3.07691 15.9712 3.15066 16 3.24049 16H13.298V17.5H3.24049C2.73532 17.5 2.30774 17.325 1.95774 16.975C1.60774 16.625 1.43274 16.1974 1.43274 15.6923V4.30775C1.43274 3.80258 1.60774 3.375 1.95774 3.025C2.30774 2.675 2.73532 2.5 3.24049 2.5H18.625C19.1302 2.5 19.5577 2.675 19.9077 3.025C20.2577 3.375 20.4327 3.80258 20.4327 4.30775V9.19225H18.9327V5.44225L10.9327 10.5577ZM10.9327 9L18.7787 4H3.08649L10.9327 9ZM18.9327 21.4807C17.9289 21.4807 17.0722 21.1259 16.3625 20.4163C15.6528 19.7068 15.298 18.8501 15.298 17.8462V13.3463C15.298 12.7296 15.5092 12.21 15.9317 11.7875C16.3542 11.365 16.8738 11.1538 17.4905 11.1538C18.107 11.1538 18.6265 11.365 19.049 11.7875C19.4715 12.21 19.6827 12.7296 19.6827 13.3463V17.8462H18.1827V13.3463C18.1827 13.1551 18.1151 12.9919 17.9797 12.8567C17.8446 12.7214 17.6815 12.6538 17.4905 12.6538C17.2993 12.6538 17.1362 12.7214 17.001 12.8567C16.8657 12.9919 16.798 13.1551 16.798 13.3463V17.8462C16.798 18.4346 17.0067 18.9374 17.424 19.3547C17.8413 19.7721 18.3442 19.9807 18.9327 19.9807C19.5212 19.9807 20.0241 19.7721 20.4412 19.3547C20.8586 18.9374 21.0672 18.4346 21.0672 17.8462V13.8463H22.5672V17.8462C22.5672 18.8501 22.2124 19.7068 21.5027 20.4163C20.7932 21.1259 19.9366 21.4807 18.9327 21.4807ZM2.93274 5.44225V4V16V5.44225Z" fill="#475769"/>
</g>
</svg>
