<svg width="20" height="20" viewBox="0 0 20 20" fill="none" xmlns="http://www.w3.org/2000/svg">
<path d="M7 13H13M7 10.5H13M11 2.5C10.9 2.5 10.79 2.5 10.67 2.5H6.7C5.58 2.5 5.02 2.5 4.59 2.72C4.22 2.91 3.91 3.22 3.72 3.59C3.5 4.02 3.5 4.58 3.5 5.7V14.3C3.5 15.42 3.5 15.98 3.72 16.41C3.91 16.78 4.22 17.09 4.59 17.28C5.02 17.5 5.58 17.5 6.7 17.5H13.3C14.42 17.5 14.98 17.5 15.41 17.28C15.78 17.09 16.09 16.78 16.28 16.41C16.5 15.98 16.5 15.42 16.5 14.3V8.33C16.5 8.2 16.5 8.1 16.5 8M11 2.5C11.28 2.5 11.47 2.51 11.64 2.55C11.84 2.6 12.04 2.68 12.22 2.79C12.42 2.92 12.59 3.09 12.94 3.44L15.56 6.06C15.91 6.41 16.08 6.58 16.2 6.78C16.31 6.96 16.4 7.16 16.44 7.36C16.49 7.53 16.5 7.71 16.5 8M11 2.5V5.3C11 6.42 11 6.98 11.22 7.41C11.41 7.78 11.72 8.09 12.09 8.28C12.52 8.5 13.08 8.5 14.2 8.5H16.5" stroke="currentColor" stroke-width="1.5" stroke-linecap="round" stroke-linejoin="round"/>
</svg>
