<svg width="32" height="32" viewBox="0 0 32 32" fill="none" xmlns="http://www.w3.org/2000/svg">
<rect width="32" height="32" rx="4" fill="#F4F6F9"/>
<path d="M13.0001 21H19.0001M13.0001 18H19.0001M17.0004 7.00087C16.9049 7 16.7974 7 16.6748 7H12.2003C11.0802 7 10.5197 7 10.0919 7.21799C9.71553 7.40973 9.40979 7.71547 9.21805 8.0918C9.00006 8.51962 9.00006 9.08009 9.00006 10.2002V21.8002C9.00006 22.9203 9.00006 23.4801 9.21805 23.9079C9.4098 24.2842 9.71553 24.5905 10.0919 24.7822C10.5193 25 11.0791 25 12.197 25L19.8032 25C20.9211 25 21.48 25 21.9075 24.7822C22.2838 24.5905 22.5905 24.2842 22.7823 23.9079C23.0001 23.4805 23.0001 22.9215 23.0001 21.8036V13.3257C23.0001 13.203 23 13.0955 22.9991 13M17.0004 7.00087C17.2859 7.00348 17.4658 7.01407 17.6382 7.05547C17.8423 7.10446 18.0379 7.18526 18.2169 7.29492C18.4186 7.41857 18.5919 7.59181 18.9376 7.9375L22.063 11.063C22.4089 11.4089 22.5809 11.5814 22.7046 11.7832C22.8143 11.9621 22.8954 12.1573 22.9444 12.3613C22.9858 12.5338 22.9965 12.7145 22.9991 13M17.0004 7.00087L17.0001 9.80021C17.0001 10.9203 17.0001 11.4802 17.218 11.908C17.4098 12.2843 17.7155 12.5905 18.0919 12.7822C18.5193 13 19.0791 13 20.197 13H22.9991" stroke="#5A6B7F" stroke-width="1.5" stroke-linecap="round" stroke-linejoin="round"/>
</svg>
