<svg width="32" height="32" viewBox="0 0 32 32" fill="none" xmlns="http://www.w3.org/2000/svg">
<rect width="32" height="32" rx="4" fill="#F4F6F9"/>
<path d="M18.9994 22.0002L17.3418 20.3426M17.0004 7.00075C16.9048 6.99988 16.7974 6.99988 16.6747 6.99988H12.2002C11.0801 6.99988 10.5196 6.99988 10.0918 7.21787C9.71547 7.40961 9.40973 7.71535 9.21799 8.09167C9 8.5195 9 9.07997 9 10.2001V21.8001C9 22.9202 9 23.4799 9.21799 23.9078C9.40973 24.2841 9.71547 24.5904 10.0918 24.7821C10.5192 24.9999 11.079 24.9999 12.1969 24.9999L19.8031 24.9999C20.921 24.9999 21.48 24.9999 21.9074 24.7821C22.2837 24.5904 22.5905 24.2841 22.7822 23.9078C23 23.4804 23 22.9214 23 21.8035V13.3256C23 13.2029 22.9999 13.0954 22.999 12.9999M17.0004 7.00075C17.2858 7.00335 17.4657 7.01394 17.6382 7.05535C17.8422 7.10434 18.0379 7.18514 18.2168 7.2948C18.4186 7.41844 18.5918 7.59169 18.9375 7.93738L22.063 11.0629C22.4089 11.4088 22.5809 11.5812 22.7046 11.7831C22.8142 11.962 22.8953 12.1571 22.9443 12.3612C22.9857 12.5337 22.9964 12.7144 22.999 12.9999M17.0004 7.00075L17 9.80009C17 10.9202 17 11.48 17.218 11.9079C17.4097 12.2842 17.7155 12.5904 18.0918 12.7821C18.5192 12.9999 19.079 12.9999 20.1969 12.9999H22.999M15.5 20.9999C14.1193 20.9999 13 19.8806 13 18.4999C13 17.1192 14.1193 15.9999 15.5 15.9999C16.8807 15.9999 18 17.1192 18 18.4999C18 19.8806 16.8807 20.9999 15.5 20.9999Z" stroke="#5A6B7F" stroke-width="1.5" stroke-linecap="round" stroke-linejoin="round"/>
</svg>
