<svg width="32" height="32" viewBox="0 0 32 32" fill="none" xmlns="http://www.w3.org/2000/svg">
<rect width="32" height="32" rx="4" fill="#E8EBEF"/>
<path d="M11.2666 14.6812C11.2666 17.962 14.1367 20.6751 15.4071 21.7153C15.5889 21.8642 15.6809 21.9395 15.8166 21.9777C15.9222 22.0074 16.0776 22.0074 16.1833 21.9777C16.3192 21.9394 16.4105 21.8648 16.593 21.7154C17.8634 20.6752 20.7334 17.9623 20.7334 14.6815C20.7334 13.44 20.2347 12.2491 19.347 11.3711C18.4593 10.4932 17.2554 10 16.0001 10C14.7447 10 13.5407 10.4933 12.653 11.3712C11.7653 12.2492 11.2666 13.4397 11.2666 14.6812Z" stroke="#3A4C61" stroke-width="1.3524" stroke-linecap="round" stroke-linejoin="round"/>
<path d="M14.6476 14.0572C14.6476 14.8041 15.2531 15.4096 16 15.4096C16.7469 15.4096 17.3524 14.8041 17.3524 14.0572C17.3524 13.3103 16.7469 12.7048 16 12.7048C15.2531 12.7048 14.6476 13.3103 14.6476 14.0572Z" stroke="#3A4C61" stroke-width="1.3524" stroke-linecap="round" stroke-linejoin="round"/>
</svg>
