<svg width="32" height="32" viewBox="0 0 32 32" fill="none" xmlns="http://www.w3.org/2000/svg">
<rect width="32" height="32" rx="4" fill="#F4F6F9"/>
<rect width="16" height="16" transform="translate(8 8)" fill="#F4F6F9"/>
<path d="M16 19L19 16M19 16L16 13M19 16H8M13 11.2486V11.2002C13 10.0801 13 9.51962 13.218 9.0918C13.4097 8.71547 13.7155 8.40973 14.0918 8.21799C14.5196 8 15.0801 8 16.2002 8H20.8002C21.9203 8 22.4796 8 22.9074 8.21799C23.2837 8.40973 23.5905 8.71547 23.7822 9.0918C24 9.5192 24 10.079 24 11.1969V20.8036C24 21.9215 24 22.4805 23.7822 22.9079C23.5905 23.2842 23.2837 23.5905 22.9074 23.7822C22.48 24 21.921 24 20.8031 24H16.1969C15.079 24 14.5192 24 14.0918 23.7822C13.7155 23.5905 13.4097 23.2839 13.218 22.9076C13 22.4798 13 21.9201 13 20.8V20.75" stroke="#5A6B7F" stroke-width="1.5" stroke-linecap="round" stroke-linejoin="round"/>
</svg>
