<svg width="16" height="16" viewBox="0 0 16 16" fill="none" xmlns="http://www.w3.org/2000/svg">
<path d="M6.87188 9.12823L10.1027 5.89746M13.4076 3.92578L10.6805 12.7888C10.4361 13.5831 10.3138 13.9805 10.103 14.1122C9.92017 14.2264 9.6938 14.2455 9.49467 14.1629C9.26506 14.0676 9.0787 13.6955 8.70693 12.952L6.97963 9.4974C6.92064 9.37941 6.89111 9.32066 6.8517 9.26953C6.81673 9.22417 6.77637 9.18329 6.73101 9.14832C6.68105 9.10981 6.62328 9.08093 6.51055 9.02458L3.04799 7.2933C2.30445 6.92153 1.93265 6.73547 1.83738 6.50586C1.75475 6.30673 1.7736 6.08015 1.88783 5.89732C2.01956 5.68649 2.41686 5.56402 3.2114 5.31954L12.0745 2.59245C12.6991 2.40025 13.0115 2.30423 13.2225 2.38169C13.4063 2.44915 13.5512 2.59389 13.6186 2.77767C13.6961 2.98855 13.6 3.30084 13.408 3.92486L13.4076 3.92578Z" stroke="currentColor" stroke-linecap="round" stroke-linejoin="round"/>
</svg>
