<svg width="32" height="32" viewBox="0 0 32 32" fill="none" xmlns="http://www.w3.org/2000/svg">
<rect width="32" height="32" rx="4" fill="#F4F6F9"/>
<path d="M25 24C25 22.2584 23.3304 20.7767 21 20.2275M19 24C19 21.7909 16.3137 20 13 20C9.68629 20 7 21.7909 7 24M19 17C21.2091 17 23 15.2091 23 13C23 10.7909 21.2091 9 19 9M13 17C10.7909 17 9 15.2091 9 13C9 10.7909 10.7909 9 13 9C15.2091 9 17 10.7909 17 13C17 15.2091 15.2091 17 13 17Z" stroke="#5A6B7F" stroke-width="1.5" stroke-linecap="round" stroke-linejoin="round"/>
</svg>
