<svg width="10" height="10" viewBox="0 0 10 10" fill="none" xmlns="http://www.w3.org/2000/svg">
<path d="M5 3.75004V5.41671M1.82454 6.3333C1.44561 6.98962 1.2562 7.31791 1.28451 7.58719C1.30919 7.82207 1.43247 8.03546 1.62354 8.17428C1.84252 8.33338 2.22121 8.33338 2.97856 8.33338H7.02144C7.77879 8.33338 8.15743 8.33338 8.37641 8.17428C8.56748 8.03546 8.69081 7.82207 8.71549 7.58719C8.7438 7.31791 8.55444 6.98962 8.17551 6.3333L6.15479 2.8333C5.77586 2.17697 5.58631 1.84886 5.33895 1.73873C5.12319 1.64267 4.87667 1.64267 4.66091 1.73873C4.41366 1.84882 4.22422 2.17693 3.84561 2.83271L1.82454 6.3333ZM5.02116 6.66671V6.70838L4.97925 6.70846V6.66671H5.02116Z" stroke="#FF4E4E" stroke-width="0.772201" stroke-linecap="round" stroke-linejoin="round"/>
</svg>
