<svg width="27.5" height="27.5" viewBox="0 0 27.5 27.5" fill="none" xmlns="http://www.w3.org/2000/svg">
  <path
    d="M10.0422 14.2078C9.01406 13.1797 8.5 11.9438 8.5 10.5C8.5 9.05625 9.01406 7.82031 10.0422 6.79219C11.0703 5.76406 12.3062 5.25 13.75 5.25C15.1938 5.25 16.4297 5.76406 17.4578 6.79219C18.4859 7.82031 19 9.05625 19 10.5C19 11.9438 18.4859 13.1797 17.4578 14.2078C16.4297 15.2359 15.1938 15.75 13.75 15.75C12.3062 15.75 11.0703 15.2359 10.0422 14.2078ZM3.25 26.25V22.575C3.25 21.8312 3.44141 21.1477 3.82422 20.5242C4.20703 19.9008 4.71563 19.425 5.35 19.0969C6.70625 18.4188 8.08437 17.9102 9.48438 17.5711C10.8844 17.232 12.3062 17.0625 13.75 17.0625C15.1938 17.0625 16.6156 17.232 18.0156 17.5711C19.4156 17.9102 20.7938 18.4188 22.15 19.0969C22.7844 19.425 23.293 19.9008 23.6758 20.5242C24.0586 21.1477 24.25 21.8312 24.25 22.575V26.25H3.25Z"
    fill="currentColor"
  />
</svg>
