<svg width="28" height="28" viewBox="0 0 28 28" fill="none" xmlns="http://www.w3.org/2000/svg">
  <path
    d="M9.90206 24.8354C8.62844 24.2812 7.52011 23.5326 6.57706 22.5896C5.634 21.6465 4.88539 20.5382 4.33122 19.2646C3.77705 17.991 3.49997 16.625 3.49997 15.1667C3.49997 13.7083 3.77705 12.3424 4.33122 11.0687C4.88539 9.79514 5.634 8.6868 6.57706 7.74375C7.52011 6.80069 8.62844 6.05208 9.90206 5.49791C11.1757 4.94375 12.5416 4.66666 14 4.66666C15.4583 4.66666 16.8243 4.94375 18.0979 5.49791C19.3715 6.05208 20.4798 6.80069 21.4229 7.74375C22.3659 8.6868 23.1146 9.79514 23.6687 11.0687C24.2229 12.3424 24.5 13.7083 24.5 15.1667C24.5 16.625 24.2229 17.991 23.6687 19.2646C23.1146 20.5382 22.3659 21.6465 21.4229 22.5896C20.4798 23.5326 19.3715 24.2812 18.0979 24.8354C16.8243 25.3896 15.4583 25.6667 14 25.6667C12.5416 25.6667 11.1757 25.3896 9.90206 24.8354ZM17.2666 20.0667L18.9 18.4333L15.1666 14.7V9.33333H12.8333V15.6333L17.2666 20.0667ZM6.53331 2.74166L8.16664 4.375L3.2083 9.33333L1.57497 7.7L6.53331 2.74166ZM21.4666 2.74166L26.425 7.7L24.7916 9.33333L19.8333 4.375L21.4666 2.74166Z"
    fill="currentColor"
  />
</svg>
