<svg width="20" height="20" viewBox="0 0 20 20" fill="none" xmlns="http://www.w3.org/2000/svg">
<path d="M4.99994 7.29175H14.9999M4.99994 7.29175V12.7919C4.99994 13.4919 4.99994 13.8418 5.13618 14.1092C5.25602 14.3444 5.44711 14.5358 5.68231 14.6556C5.94944 14.7917 6.29931 14.7917 6.99801 14.7917H13.0019C13.7006 14.7917 14.0499 14.7917 14.3171 14.6556C14.5523 14.5358 14.744 14.3444 14.8638 14.1092C14.9999 13.842 14.9999 13.4927 14.9999 12.794V7.29175M4.99994 7.29175V6.79187C4.99994 6.0918 4.99994 5.74151 5.13618 5.47412C5.25602 5.23892 5.44711 5.04783 5.68231 4.92799C5.9497 4.79175 6.3 4.79175 7.00006 4.79175H7.49994M14.9999 7.29175V6.78982C14.9999 6.09112 14.9999 5.74125 14.8638 5.47412C14.744 5.23892 14.5523 5.04783 14.3171 4.92799C14.0497 4.79175 13.7001 4.79175 13.0001 4.79175H12.4999M12.4999 3.54175V4.79175M12.4999 4.79175H7.49994M7.49994 3.54175V4.79175" stroke="#323532" stroke-width="1.5" stroke-linecap="round" stroke-linejoin="round"/>
</svg>