<svg width="24" height="24" viewBox="0 0 24 24" fill="none" xmlns="http://www.w3.org/2000/svg">
<mask id="mask0_2743_4809" style="mask-type:alpha" maskUnits="userSpaceOnUse" x="0" y="0" width="24" height="24">
<rect width="24" height="24" fill="#D9D9D9"/>
</mask>
<g mask="url(#mask0_2743_4809)">
<path d="M11 3.92502L8.92499 6.00002H5.99999V8.92502L3.92499 11L5.99999 13.075V16H8.92499L11 18.075L13.5 15.575L17.7 17.7L15.55 13.525L18.075 11L16 8.92502V6.00002H13.075L11 3.92502ZM11 1.81152L13.6915 4.50327H17.4967V8.30852L20.1885 11L17.3845 13.8038L19.8652 18.6653C19.9691 18.8628 19.9992 19.0529 19.9557 19.2355C19.9121 19.4182 19.8268 19.573 19.7 19.7C19.573 19.8269 19.4182 19.9121 19.2355 19.9558C19.0528 19.9993 18.8627 19.9691 18.6652 19.8653L13.8037 17.3845L11 20.1885L8.30849 17.4968H4.50324V13.6915L1.81149 11L4.50324 8.30852V4.50327H8.30849L11 1.81152Z" fill="#344352"/>
</g>
</svg>
