<svg width="32" height="32" viewBox="0 0 32 32" fill="none" xmlns="http://www.w3.org/2000/svg">
<rect width="32" height="32" rx="4" fill="#F4F6F9"/>
<path d="M13.5 8H12C10.8954 8 10 8.89543 10 10V23C10 24.1046 10.8954 25 12 25H20C21.1046 25 22 24.1046 22 23V10C22 8.89543 21.1046 8 20 8H18.5M13.5 8C13.5 9.10457 14.3954 10 15.5 10H16.5C17.6046 10 18.5 9.10457 18.5 8M13.5 8C13.5 6.89543 14.3954 6 15.5 6H16.5C17.6046 6 18.5 6.89543 18.5 8M13.5 15H18.5M13.5 19H16.5" stroke="#5A6B7F" stroke-width="1.5" stroke-linecap="round" stroke-linejoin="round"/>
</svg>
