<svg width="16" height="16" viewBox="0 0 16 16" fill="none" xmlns="http://www.w3.org/2000/svg">
<path d="M5.55551 5.55556V3.89641C5.55551 3.23265 5.55551 2.90052 5.68469 2.64699C5.79832 2.42398 5.97949 2.24281 6.2025 2.12918C6.45602 2 6.78814 2 7.4519 2H10.7704C11.4341 2 11.7658 2 12.0194 2.12918C12.2424 2.24281 12.4239 2.42398 12.5375 2.64699C12.6667 2.90052 12.6667 3.2324 12.6667 3.89616V7.2147C12.6667 7.87847 12.6667 8.21035 12.5375 8.46387C12.4239 8.68688 12.2422 8.86843 12.0192 8.98206C11.7659 9.11111 11.4346 9.11111 10.7721 9.11111H9.11103M5.55551 5.55556H3.89639C3.23263 5.55556 2.90051 5.55556 2.64698 5.68473C2.42398 5.79836 2.2428 5.97954 2.12918 6.20255C2 6.45607 2 6.7882 2 7.45197V10.7705C2 11.4343 2 11.766 2.12918 12.0195C2.2428 12.2425 2.42398 12.424 2.64698 12.5376C2.90026 12.6667 3.23198 12.6667 3.89444 12.6667H7.21686C7.87932 12.6667 8.21058 12.6667 8.46385 12.5376C8.68686 12.424 8.86835 12.2423 8.98198 12.0193C9.11103 11.766 9.11103 11.4347 9.11103 10.7722V9.11111M5.55551 5.55556H7.21487C7.87863 5.55556 8.21033 5.55556 8.46385 5.68473C8.68686 5.79836 8.86835 5.97954 8.98198 6.20255C9.11103 6.45583 9.11103 6.78756 9.11103 7.45004L9.11103 9.11111" stroke="white" stroke-width="1.5" stroke-linecap="round" stroke-linejoin="round"/>
</svg>
