<svg width="32" height="32" viewBox="0 0 32 32" fill="none" xmlns="http://www.w3.org/2000/svg">
<rect width="32" height="32" rx="4" fill="#E8EBEF"/>
<path d="M12.6667 13.6667C12.6667 15.1394 14.1591 16.3333 16 16.3333C17.8409 16.3333 19.3333 15.1394 19.3333 13.6667C19.3333 12.1939 17.8409 11 16 11C14.1591 11 12.6667 12.1939 12.6667 13.6667Z" fill="#E8EBEF"/>
<path d="M21 21C21 19.5272 18.7614 18.3333 16 18.3333C13.2386 18.3333 11 19.5272 11 21M16 16.3333C14.1591 16.3333 12.6667 15.1394 12.6667 13.6667C12.6667 12.1939 14.1591 11 16 11C17.8409 11 19.3333 12.1939 19.3333 13.6667C19.3333 15.1394 17.8409 16.3333 16 16.3333Z" stroke="#3A4C61" stroke-width="1.44444" stroke-linecap="round" stroke-linejoin="round"/>
</svg>
