<svg width="24" height="24" viewBox="0 0 24 24" fill="none" xmlns="http://www.w3.org/2000/svg">
<mask id="mask0_3053_3562" style="mask-type:alpha" maskUnits="userSpaceOnUse" x="0" y="0" width="24" height="24">
<rect width="24" height="24" fill="#D9D9D9"/>
</mask>
<g mask="url(#mask0_3053_3562)">
<path d="M14.3135 4H7.5V2.5H15.8135L14.3135 4ZM10.6213 7.69225H4.5V6.19225H12.1213L10.6213 7.69225ZM6.929 11.3845H1.5V9.8845H8.429L6.929 11.3845ZM14.8693 13.8463L12.2692 11.2463L7.327 16.1885C7.26933 16.2462 7.2405 16.3167 7.2405 16.4C7.2405 16.4833 7.26933 16.5538 7.327 16.6115L9.50375 18.7885C9.56158 18.8462 9.63217 18.875 9.7155 18.875C9.79883 18.875 9.86933 18.8462 9.927 18.7885L14.8693 13.8463ZM13.3385 10.177L15.9385 12.777L20.8943 7.82125C20.9519 7.76358 20.9807 7.68983 20.9807 7.6C20.9807 7.51017 20.9519 7.43642 20.8943 7.37875L18.7365 5.22125C18.6788 5.16358 18.6052 5.13475 18.5155 5.13475C18.4257 5.13475 18.3519 5.16358 18.2943 5.22125L13.3385 10.177ZM11.7578 9.65L16.4653 14.3577L10.9808 19.8423C10.6193 20.2038 10.1975 20.3845 9.7155 20.3845C9.23333 20.3845 8.8115 20.2038 8.45 19.8423L8.323 19.7153L7.423 20.6152H3.5385L6.38075 17.773L6.27325 17.6652C5.91158 17.3038 5.73075 16.882 5.73075 16.4C5.73075 15.918 5.91158 15.4963 6.27325 15.1348L11.7578 9.65ZM11.7578 9.65L17.25 4.15775C17.6115 3.79625 18.0333 3.6155 18.5155 3.6155C18.9975 3.6155 19.4193 3.79625 19.7808 4.15775L21.9578 6.33475C22.3193 6.69625 22.5 7.118 22.5 7.6C22.5 8.082 22.3193 8.50375 21.9578 8.86525L16.4653 14.3577L11.7578 9.65Z" fill="#344352"/>
</g>
</svg>
