<svg width="11" height="14" viewBox="0 0 11 14" fill="none" xmlns="http://www.w3.org/2000/svg">
<path d="M0.676208 5.3575C0.676208 8.63831 3.54632 11.3514 4.81671 12.3916C4.99852 12.5405 5.09052 12.6158 5.22616 12.654C5.33179 12.6837 5.48724 12.6837 5.59286 12.654C5.72876 12.6157 5.82011 12.5411 6.00261 12.3917C7.273 11.3515 10.143 8.63861 10.143 5.35781C10.143 4.11622 9.64429 2.92535 8.75661 2.04742C7.86892 1.16949 6.66504 0.67627 5.40967 0.67627C4.15429 0.67627 2.95028 1.16956 2.06259 2.04749C1.1749 2.92542 0.676208 4.11592 0.676208 5.3575Z" stroke="#3A4C61" stroke-width="1.3524" stroke-linecap="round" stroke-linejoin="round"/>
<path d="M4.05721 4.73347C4.05721 5.48038 4.6627 6.08587 5.40961 6.08587C6.15652 6.08587 6.76201 5.48038 6.76201 4.73347C6.76201 3.98656 6.15652 3.38107 5.40961 3.38107C4.6627 3.38107 4.05721 3.98656 4.05721 4.73347Z" stroke="#3A4C61" stroke-width="1.3524" stroke-linecap="round" stroke-linejoin="round"/>
</svg>
