<svg width="60" height="60" viewBox="0 0 60 60" fill="none" xmlns="http://www.w3.org/2000/svg">
<mask id="mask0_3357_2552" style="mask-type:alpha" maskUnits="userSpaceOnUse" x="0" y="0" width="60" height="60">
<rect width="60" height="60" fill="#D9D9D9"/>
</mask>
<g mask="url(#mask0_3357_2552)">
<path d="M45.6252 33.7492V26.2492H38.1252V23.7492H45.6252V16.2492H48.1252V23.7492H55.6252V26.2492H48.1252V33.7492H45.6252ZM17.1927 26.2686C15.7311 24.8069 15.0002 23.0375 15.0002 20.9604C15.0002 18.8838 15.7311 17.1146 17.1927 15.653C18.654 14.1913 20.4232 13.4604 22.5002 13.4604C24.5773 13.4604 26.3465 14.1913 27.8077 15.653C29.2694 17.1146 30.0002 18.8838 30.0002 20.9604C30.0002 23.0375 29.2694 24.8069 27.8077 26.2686C26.3465 27.7298 24.5773 28.4604 22.5002 28.4604C20.4232 28.4604 18.654 27.7298 17.1927 26.2686ZM5.00024 46.5379V42.4223C5.00024 41.3902 5.30066 40.4246 5.90149 39.5255C6.50274 38.6267 7.31129 37.9288 8.32712 37.4317C10.6863 36.3004 13.0469 35.4519 15.409 34.8861C17.7711 34.3207 20.1348 34.0379 22.5002 34.0379C24.8657 34.0379 27.2294 34.3207 29.5915 34.8861C31.9536 35.4519 34.3142 36.3004 36.6734 37.4317C37.6892 37.9288 38.4977 38.6267 39.099 39.5255C39.6998 40.4246 40.0002 41.3902 40.0002 42.4223V46.5379H5.00024ZM7.50024 44.0379H37.5002V42.4223C37.5002 41.8677 37.3215 41.3469 36.964 40.8598C36.6069 40.3727 36.1125 39.9609 35.4809 39.6242C33.4234 38.6275 31.3019 37.864 29.1165 37.3336C26.9311 36.8032 24.7257 36.5379 22.5002 36.5379C20.2748 36.5379 18.0694 36.8032 15.884 37.3336C13.6986 37.864 11.5771 38.6275 9.51962 39.6242C8.88795 39.9609 8.39358 40.3727 8.03649 40.8598C7.67899 41.3469 7.50024 41.8677 7.50024 42.4223V44.0379ZM26.0315 24.4917C27.0107 23.5125 27.5002 22.3354 27.5002 20.9604C27.5002 19.5854 27.0107 18.4084 26.0315 17.4292C25.0523 16.45 23.8752 15.9604 22.5002 15.9604C21.1252 15.9604 19.9482 16.45 18.969 17.4292C17.9898 18.4084 17.5002 19.5854 17.5002 20.9604C17.5002 22.3354 17.9898 23.5125 18.969 24.4917C19.9482 25.4709 21.1252 25.9604 22.5002 25.9604C23.8752 25.9604 25.0523 25.4709 26.0315 24.4917Z" fill="#69BFDF"/>
</g>
</svg>
