<svg width="32" height="32" viewBox="0 0 32 32" fill="none" xmlns="http://www.w3.org/2000/svg">
<rect width="32" height="32" rx="4" fill="#F4F6F9"/>
<path d="M18 14V21M14 14V21M10 10V21.8C10 22.9201 10 23.4798 10.218 23.9076C10.4097 24.2839 10.7155 24.5905 11.0918 24.7822C11.5192 25 12.079 25 13.1969 25H18.8031C19.921 25 20.48 25 20.9074 24.7822C21.2837 24.5905 21.5905 24.2839 21.7822 23.9076C22 23.4802 22 22.921 22 21.8031V10M10 10H12M10 10H8M12 10H20M12 10C12 9.06812 12 8.60241 12.1522 8.23486C12.3552 7.74481 12.7443 7.35523 13.2344 7.15224C13.6019 7 14.0681 7 15 7H17C17.9319 7 18.3978 7 18.7654 7.15224C19.2554 7.35523 19.6447 7.74481 19.8477 8.23486C19.9999 8.6024 20 9.06812 20 10M20 10H22M22 10H24" stroke="#5A6B7F" stroke-width="1.5" stroke-linecap="round" stroke-linejoin="round"/>
</svg>
