<svg width="32" height="32" viewBox="0 0 32 32" fill="none" xmlns="http://www.w3.org/2000/svg">
<mask id="mask0_2812_1915" style="mask-type:alpha" maskUnits="userSpaceOnUse" x="0" y="0" width="32" height="32">
<rect width="32" height="32" fill="#D9D9D9"/>
</mask>
<g mask="url(#mask0_2812_1915)">
<path d="M6 25.179V23.1793H8.41033V13.2303C8.41033 11.4372 8.96378 9.85179 10.0707 8.47401C11.1773 7.09623 12.5982 6.21501 14.3333 5.83034V4.99967C14.3333 4.53679 14.4952 4.14323 14.819 3.81901C15.1428 3.49501 15.5359 3.33301 15.9983 3.33301C16.461 3.33301 16.8547 3.49501 17.1793 3.81901C17.5042 4.14323 17.6667 4.53679 17.6667 4.99967V5.83034C19.4018 6.21501 20.8227 7.09623 21.9293 8.47401C23.0362 9.85179 23.5897 11.4372 23.5897 13.2303V23.1793H26V25.179H6ZM15.9977 28.9227C15.3343 28.9227 14.7672 28.6867 14.2963 28.2147C13.8252 27.7427 13.5897 27.1752 13.5897 26.5123H18.4103C18.4103 27.1775 18.1741 27.7455 17.7017 28.2163C17.2292 28.6872 16.6612 28.9227 15.9977 28.9227Z" fill="url(#paint0_linear_2812_1915)"/>
</g>
<circle cx="24" cy="9" r="5" fill="url(#paint1_linear_2812_1915)" stroke="white" stroke-width="2"/>
<defs>
<linearGradient id="paint0_linear_2812_1915" x1="22.3302" y1="3.33301" x2="4.79918" y2="24.9778" gradientUnits="userSpaceOnUse">
<stop stop-color="#BFEEFF"/>
<stop offset="0.826923" stop-color="#69BFDF"/>
</linearGradient>
<linearGradient id="paint1_linear_2812_1915" x1="27.7981" y1="3" x2="20.2019" y2="15" gradientUnits="userSpaceOnUse">
<stop stop-color="#BFEEFF"/>
<stop offset="0.826923" stop-color="#69BFDF"/>
</linearGradient>
</defs>
</svg>
