<svg width="32" height="32" viewBox="0 0 32 32" fill="none" xmlns="http://www.w3.org/2000/svg">
<mask id="mask0_2812_1915" style="mask-type:alpha" maskUnits="userSpaceOnUse" x="0" y="0" width="32" height="32">
<rect width="32" height="32" fill="#D9D9D9"/>
</mask>
<g mask="url(#mask0_2812_1915)">
<path d="M6 25.1794V23.1797H8.41033V13.2307C8.41033 11.4376 8.96378 9.85215 10.0707 8.47437C11.1773 7.0966 12.5982 6.21537 14.3333 5.83071V5.00004C14.3333 4.53715 14.4952 4.1436 14.819 3.81937C15.1428 3.49537 15.5359 3.33337 15.9983 3.33337C16.461 3.33337 16.8547 3.49537 17.1793 3.81937C17.5042 4.1436 17.6667 4.53715 17.6667 5.00004V5.83071C19.4018 6.21537 20.8227 7.0966 21.9293 8.47437C23.0362 9.85215 23.5897 11.4376 23.5897 13.2307V23.1797H26V25.1794H6ZM15.9977 28.923C15.3343 28.923 14.7672 28.687 14.2963 28.215C13.8252 27.743 13.5897 27.1756 13.5897 26.5127H18.4103C18.4103 27.1778 18.1741 27.7458 17.7017 28.2167C17.2292 28.6876 16.6612 28.923 15.9977 28.923Z" fill="#8ED0E6"/>
</g>
<circle cx="24" cy="9" r="5" fill="#8ED0E6" stroke="white" stroke-width="2"/>
</svg>
