<svg width="32" height="32" viewBox="0 0 32 32" fill="none" xmlns="http://www.w3.org/2000/svg">
<rect width="32" height="32" rx="4" fill="#F4F6F9"/>
<path d="M9.83333 21C9.89345 21 9.95541 21 10.0193 21H15.5M9.83333 21C8.89997 20.9993 8.41037 20.9879 8.03114 20.8004C7.67572 20.6246 7.38697 20.3434 7.20588 19.9984C7 19.6063 7 19.0936 7 18.0668V12.9335C7 11.9067 7 11.393 7.20588 11.0008C7.38697 10.6558 7.67572 10.3756 8.03114 10.1998C8.4352 10 8.96453 10 10.0224 10H20.978C22.0358 10 22.564 10 22.9681 10.1998C23.3235 10.3756 23.6132 10.6558 23.7943 11.0008C24 11.3926 24 11.9057 24 12.9305V18.0695C24 19.0943 24 19.6067 23.7943 19.9984C23.6132 20.3434 23.3235 20.6246 22.9681 20.8004C22.5644 21 22.0365 21 20.9807 21H15.5M9.83333 21C9.83337 19.9875 11.1019 19.1667 12.6667 19.1667C14.2315 19.1667 15.5 19.9875 15.5 21M21.1667 17.3333H17.3889M21.1667 14.5833H18.3333M12.6667 16.4167C11.6235 16.4167 10.7778 15.5959 10.7778 14.5833C10.7778 13.5708 11.6235 12.75 12.6667 12.75C13.7099 12.75 14.5556 13.5708 14.5556 14.5833C14.5556 15.5959 13.7099 16.4167 12.6667 16.4167Z" stroke="#5A6B7F" stroke-width="1.42" stroke-linecap="round" stroke-linejoin="round"/>
</svg>
