<svg width="32" height="32" viewBox="0 0 32 32" fill="none" xmlns="http://www.w3.org/2000/svg">
<rect width="32" height="32" rx="4" fill="#F4F6F9"/>
<path d="M20.7222 24.5C20.7222 21.892 18.608 19.7778 16 19.7778C13.392 19.7778 11.2778 21.892 11.2778 24.5M20.7222 24.5H21.4807C22.5365 24.5 23.0644 24.5 23.4681 24.2943C23.8235 24.1132 24.1132 23.8235 24.2943 23.4681C24.5 23.0644 24.5 22.5365 24.5 21.4807V10.5193C24.5 9.46349 24.5 8.9348 24.2943 8.53114C24.1132 8.17572 23.8235 7.88697 23.4681 7.70588C23.064 7.5 22.5358 7.5 21.478 7.5H10.5224C9.46453 7.5 8.9352 7.5 8.53114 7.70588C8.17572 7.88697 7.88697 8.17572 7.70588 8.53114C7.5 8.9352 7.5 9.46453 7.5 10.5224V21.478C7.5 22.5358 7.5 23.064 7.70588 23.4681C7.88697 23.8235 8.17572 24.1132 8.53114 24.2943C8.9348 24.5 9.46349 24.5 10.5193 24.5H11.2778M20.7222 24.5H11.2778M16 16.9444C14.4352 16.9444 13.1667 15.6759 13.1667 14.1111C13.1667 12.5463 14.4352 11.2778 16 11.2778C17.5648 11.2778 18.8333 12.5463 18.8333 14.1111C18.8333 15.6759 17.5648 16.9444 16 16.9444Z" stroke="#5A6B7F" stroke-width="1.41667" stroke-linecap="round" stroke-linejoin="round"/>
</svg>
