<svg width="32" height="32" viewBox="0 0 32 32" fill="none" xmlns="http://www.w3.org/2000/svg">
<rect width="32" height="32" rx="4" fill="#E8EBEF"/>
<path d="M19.6298 21.3047C18.6151 20.1715 17.1409 19.4583 15.5 19.4583C13.8591 19.4583 12.3847 20.1715 11.37 21.3047M15.5 22.625C11.565 22.625 8.375 19.435 8.375 15.5C8.375 11.565 11.565 8.375 15.5 8.375C19.435 8.375 22.625 11.565 22.625 15.5C22.625 19.435 19.435 22.625 15.5 22.625ZM15.5 17.0833C14.1883 17.0833 13.125 16.02 13.125 14.7083C13.125 13.3967 14.1883 12.3333 15.5 12.3333C16.8117 12.3333 17.875 13.3967 17.875 14.7083C17.875 16.02 16.8117 17.0833 15.5 17.0833Z" stroke="#3A4C61" stroke-width="1.5" stroke-linecap="round" stroke-linejoin="round"/>
</svg>
