<svg width="512" height="512" viewBox="0 0 512 512" fill="none" xmlns="http://www.w3.org/2000/svg">
<rect width="512" height="512" rx="150" fill="white"/>
<circle cx="20" cy="20" r="20" transform="matrix(1 0 0 -1 54 281)" fill="#323532"/>
<circle cx="20" cy="20" r="20" transform="matrix(1 0 0 -1 418 281)" fill="#323532"/>
<circle cx="4" cy="4" r="4" transform="matrix(1 0 0 -1 76 260)" fill="white"/>
<circle cx="4" cy="4" r="4" transform="matrix(1 0 0 -1 439 260)" fill="white"/>
<rect x="114" y="360" width="152" height="8" transform="rotate(90 114 360)" fill="#E8EBEF"/>
<rect x="210" y="360" width="152" height="8" transform="rotate(90 210 360)" fill="#E8EBEF"/>
<rect x="306" y="360" width="152" height="8" transform="rotate(90 306 360)" fill="#E8EBEF"/>
<rect x="402" y="360" width="152" height="8" transform="rotate(90 402 360)" fill="#E8EBEF"/>
<rect y="348" width="512" height="12" fill="#323532"/>
</svg>
